# xmcd
#
# Track frame offsets:
# 187
# 25960
# 55227
# 83517
# 105052
# 132702
# 169327
# 195760
#
# Disc length: 2965 seconds
#
# Revision: 0
# Processed by: cddbd v1.4PL0 Copyright (c) Steve Scherf et al.
# Submitted via: Audion 3.0.2 (http://www.panic.com/audion/)
#
DISCID=5a0b9308
DTITLE=Bill Evans - Bill Evans Trio "Live"
DYEAR=1900
DGENRE=
TTITLE0=Nardis
TTITLE1=Someday My Prince Will Come
TTITLE2=Stella By Starlight
TTITLE3=How My Heart Sings
TTITLE4='Round Midnight
TTITLE5=What Kind Of Fool Am I ?
TTITLE6=The Boy Next Door
TTITLE7=How Deep Is The Ocean (How High Is The Sky)
EXTD=
EXTT0=
EXTT1=
EXTT2=
EXTT3=
EXTT4=
EXTT5=
EXTT6=
EXTT7=
PLAYORDER=
